<svg xmlns="http://www.w3.org/2000/svg" width="26.574" height="26.574" viewBox="0 0 26.574 26.574">
  <g id="icons8-instagram" transform="translate(-5.25 -5.25)">
    <path id="Path_8" data-name="Path 8" d="M30.574,16.542V13.378A6.9,6.9,0,0,0,23.7,6.5H13.378A6.9,6.9,0,0,0,6.5,13.378v2.063" fill="none" stroke="#fff" stroke-linecap="round" stroke-linejoin="round" stroke-width="2.5"/>
    <path id="Path_9" data-name="Path 9" d="M6.5,25.6v4.058a6.9,6.9,0,0,0,6.878,6.878H23.7a6.9,6.9,0,0,0,6.878-6.878V26.494" transform="translate(0 -5.963)" fill="none" stroke="#fff" stroke-linecap="round" stroke-linejoin="round" stroke-width="2.5"/>
    <path id="Path_10" data-name="Path 10" d="M21.346,15.5a5.846,5.846,0,1,0,5.846,5.846A5.842,5.842,0,0,0,21.346,15.5Z" transform="translate(-2.81 -2.81)" fill="none" stroke="#fff" stroke-width="2.5"/>
    <path id="Path_11" data-name="Path 11" d="M33.376,12a1.376,1.376,0,1,0,1.376,1.376A1.38,1.38,0,0,0,33.376,12Z" transform="translate(-7.961 -1.717)" fill="#fff"/>
  </g>
</svg>
