<svg xmlns="http://www.w3.org/2000/svg" width="27.172" height="23.62" viewBox="0 0 27.172 23.62">
  <g id="icons8-twitter" transform="translate(-3.25 -6.056)">
    <path id="Path_4" data-name="Path 4" d="M41.928,9.1a.584.584,0,0,0-.7-.128l-.128.064c-.064.064-.192.064-.256.128a6.556,6.556,0,0,0,.64-1.344.722.722,0,0,0-.192-.7.582.582,0,0,0-.7-.064,8.513,8.513,0,0,1-3.008,1.216L37,8.394a5.362,5.362,0,0,1,2.24,4.352V13l.064-.064a12.582,12.582,0,0,0,2.752-3.072A.681.681,0,0,0,41.928,9.1Z" transform="translate(-11.7 0)" fill="#fff"/>
    <path id="Path_5" data-name="Path 5" d="M12.18,33.5S9.94,35.42,4.5,35.42c0,0,2.24,2.56,8.32,2.56a13.54,13.54,0,0,0,9.728-3.84" transform="translate(0 -9.554)" fill="none" stroke="#fff" stroke-linecap="round" stroke-linejoin="round" stroke-width="2.5"/>
    <path id="Path_6" data-name="Path 6" d="M10.236,12.084A8.611,8.611,0,0,1,7.1,8.5a5.739,5.739,0,0,0-.96,3.2A5.084,5.084,0,0,0,8.7,16.18a7.765,7.765,0,0,1-3.2-.64,6.582,6.582,0,0,0,4.48,5.12l-2.56.64s1.28,2.24,5.12,3.2" transform="translate(-0.36 -0.554)" fill="none" stroke="#fff" stroke-linecap="round" stroke-linejoin="round" stroke-width="2.5"/>
    <path id="Path_7" data-name="Path 7" d="M30.268,21.132a17.6,17.6,0,0,0,2.24-8.192,5.44,5.44,0,1,0-10.88,0v.96a15.831,15.831,0,0,1-3.328-.512" transform="translate(-4.968 -0.194)" fill="none" stroke="#fff" stroke-linecap="round" stroke-linejoin="round" stroke-width="2.5"/>
  </g>
</svg>
