<svg xmlns="http://www.w3.org/2000/svg" width="27.749" height="27.749" viewBox="0 0 27.749 27.749">
  <g id="icons8-facebook" transform="translate(-4.25 -4.25)">
    <path id="Path_1" data-name="Path 1" d="M25.426,31.637A12.638,12.638,0,0,1,6.865,15.6" transform="translate(0 -3.208)" fill="none" stroke="#fff" stroke-linecap="round" stroke-linejoin="round" stroke-width="2.5"/>
    <path id="Path_2" data-name="Path 2" d="M13.9,7.547A12.414,12.414,0,0,1,20.792,5.5,12.64,12.64,0,0,1,33.417,18.125a12.432,12.432,0,0,1-1.706,6.346" transform="translate(-2.668)" fill="none" stroke="#fff" stroke-linecap="round" stroke-linejoin="round" stroke-width="2.5"/>
    <path id="Path_3" data-name="Path 3" d="M16.682,23.918h2.73v9.008a10.338,10.338,0,0,0,4.094,0V23.918h2.457a.726.726,0,0,0,.682-.614l.273-2.047a1.286,1.286,0,0,0-.136-.546.775.775,0,0,0-.546-.2h-2.73V18.118a1.369,1.369,0,0,1,1.365-1.365h1.365a.645.645,0,0,0,.682-.682v-2.32a.673.673,0,0,0-.614-.682c-.068,0-1.024-.068-2.252-.068-3,0-4.64,1.774-4.64,5.05v2.457h-2.73a.645.645,0,0,0-.682.682v2.047A.645.645,0,0,0,16.682,23.918Z" transform="translate(-3.335 -2.382)" fill="#fff"/>
  </g>
</svg>
