<svg xmlns="http://www.w3.org/2000/svg" width="28.926" height="31.746" viewBox="0 0 28.926 31.746">
  <g id="icons8-youtube-logo" transform="translate(-6 -4)">
    <path id="Path_13" data-name="Path 13" d="M30.634,38.212h2.2a3.152,3.152,0,0,0,3.142-3.142V25.642A3.152,3.152,0,0,0,32.834,22.5H19.4" transform="translate(-2.551 -3.966)" fill="none" stroke="#fff" stroke-linecap="round" stroke-linejoin="round" stroke-width="3"/>
    <path id="Path_14" data-name="Path 14" d="M12.292,22.5h-1.65A3.152,3.152,0,0,0,7.5,25.642V35.07a3.152,3.152,0,0,0,3.142,3.142H23.134" transform="translate(0 -3.966)" fill="none" stroke="#fff" stroke-linecap="round" stroke-linejoin="round" stroke-width="3"/>
    <path id="Path_15" data-name="Path 15" d="M24.407,9.371a1.958,1.958,0,0,0-.864-1.178A2.8,2.8,0,0,0,22.05,7.8a3.094,3.094,0,0,0-1.571.393,1.958,1.958,0,0,0-.864,1.178,7.718,7.718,0,0,0-.314,2.2v1.257a8.143,8.143,0,0,0,.236,2.2,2.231,2.231,0,0,0,.786,1.178,3.339,3.339,0,0,0,3.142,0,2.322,2.322,0,0,0,.864-1.178,8.143,8.143,0,0,0,.236-2.2V11.571A6.282,6.282,0,0,0,24.407,9.371Zm-1.65,4.164a4.67,4.67,0,0,1-.157,1.336.5.5,0,0,1-.55.393.591.591,0,0,1-.55-.393,5.126,5.126,0,0,1-.157-1.336V10.864A5.126,5.126,0,0,1,21.5,9.528a.5.5,0,0,1,.55-.393.591.591,0,0,1,.55.393,5.126,5.126,0,0,1,.157,1.336v2.671Z" transform="translate(-2.53 -0.815)" fill="#fff"/>
    <path id="Path_16" data-name="Path 16" d="M14.121,11.856,12,4.314c0-.157.079-.314.236-.314h1.257a.522.522,0,0,1,.393.314c.236,1.1,1.021,4.949,1.1,5.5h.079c.079-.393.943-4.4,1.178-5.5,0-.157.236-.314.393-.314h1.257c.157,0,.236.157.236.314l-2.121,7.542v3.378a.371.371,0,0,1-.393.393h-1.1a.371.371,0,0,1-.393-.393Z" transform="translate(-0.965)" fill="#fff"/>
    <path id="Path_17" data-name="Path 17" d="M32.585,8.393v7.7a.371.371,0,0,1-.393.393h-.786c-.157,0-.393-.157-.393-.314l-.079-.707h-.079a1.939,1.939,0,0,1-1.807,1.178,1.377,1.377,0,0,1-1.257-.55,3.3,3.3,0,0,1-.393-1.728V8.393A.371.371,0,0,1,27.793,8h1.1a.371.371,0,0,1,.393.393v5.814a1.69,1.69,0,0,0,.157.786.432.432,0,0,0,.393.236,1.117,1.117,0,0,0,.471-.157.784.784,0,0,0,.314-.393V8.393A.371.371,0,0,1,31.014,8h1.1C32.428,8,32.585,8.157,32.585,8.393Z" transform="translate(-4.266 -0.858)" fill="#fff"/>
    <path id="Path_18" data-name="Path 18" d="M14.75,35.82h-.786a.371.371,0,0,1-.393-.393V27.571H12.393A.371.371,0,0,1,12,27.178v-.786A.371.371,0,0,1,12.393,26h3.928a.371.371,0,0,1,.393.393v.786a.371.371,0,0,1-.393.393H15.142v7.856A.371.371,0,0,1,14.75,35.82Z" transform="translate(-0.965 -4.716)" fill="#fff"/>
    <path id="Path_19" data-name="Path 19" d="M21.864,36.2a.371.371,0,0,1-.393.393H21c-.157,0-.393-.157-.393-.314l-.079-.55h0a1.616,1.616,0,0,1-1.493.943,1.167,1.167,0,0,1-1.021-.471,2.362,2.362,0,0,1-.314-1.414V29.993a.371.371,0,0,1,.393-.393h.786a.371.371,0,0,1,.393.393v4.714c0,.314,0,.55.079.628.079.157.157.236.314.236s.236-.079.393-.157a.613.613,0,0,0,.314-.314V29.993a.371.371,0,0,1,.393-.393h.786a.371.371,0,0,1,.393.393V36.2Z" transform="translate(-2.187 -5.488)" fill="#fff"/>
    <path id="Path_20" data-name="Path 20" d="M28.4,31.814a9.54,9.54,0,0,0-.157-1.807,1.343,1.343,0,0,0-.471-.943,1.43,1.43,0,0,0-.864-.314,1.327,1.327,0,0,0-.786.236,1.4,1.4,0,0,0-.55.628h0V26.393A.371.371,0,0,0,25.178,26h-.786a.371.371,0,0,0-.393.393v9.035a.371.371,0,0,0,.393.393h.628a.522.522,0,0,0,.393-.314l.079-.393h0a1.836,1.836,0,0,0,.55.55,1.327,1.327,0,0,0,.786.236,1.218,1.218,0,0,0,1.178-.707,5.39,5.39,0,0,0,.393-2.278h0v-1.1Zm-1.571,1.021a5.2,5.2,0,0,1-.079,1.178c-.079.314-.079.471-.236.628a.432.432,0,0,1-.393.157.708.708,0,0,1-.393-.079c-.079-.079-.236-.157-.236-.236V30.557l.236-.471a.432.432,0,0,1,.393-.157.6.6,0,0,1,.393.157,1.217,1.217,0,0,1,.157.628c0,.314.079.707.079,1.257l.079.864Z" transform="translate(-3.537 -4.716)" fill="#fff"/>
    <path id="Path_21" data-name="Path 21" d="M34.271,33.564a.371.371,0,0,0,.393-.393v-.786a9.266,9.266,0,0,0-.157-1.728,1.564,1.564,0,0,0-.628-.943,2.678,2.678,0,0,0-1.257-.314,1.835,1.835,0,0,0-1.65.707,4.286,4.286,0,0,0-.471,2.278v1.178a3.977,3.977,0,0,0,.471,2.2,1.835,1.835,0,0,0,1.65.707A2.265,2.265,0,0,0,34.114,36a2.071,2.071,0,0,0,.55-1.257.371.371,0,0,0-.393-.393h-.628a.371.371,0,0,0-.393.393.589.589,0,0,1-.079.393.56.56,0,0,1-.471.236.6.6,0,0,1-.393-.157.664.664,0,0,1-.157-.471c0-.236-.079-.55-.079-1.021v-.314l2.2.157Zm-2.2-.864v-.471a3.545,3.545,0,0,1,.079-1.021.664.664,0,0,1,.157-.471.57.57,0,0,1,.786,0,.664.664,0,0,1,.157.471c0,.236.079.55.079,1.021V32.7Z" transform="translate(-4.931 -5.445)" fill="#fff"/>
  </g>
</svg>
