<svg xmlns="http://www.w3.org/2000/svg" width="28.365" height="22.911" viewBox="0 0 28.365 22.911">
  <path id="icons8-discord-new" d="M20.138,12.441a21.135,21.135,0,0,0-7.592,2.181S8,19.388,8,28.386v2.878l1.073.7c3.45,2.249,5.909,3.389,7.308,3.389h1.243l1.624-2.36a16.418,16.418,0,0,0,5.868,0l1.624,2.36h1.243c1.4,0,3.858-1.14,7.308-3.389l1.073-.7V28.386c0-8.89-4.546-13.763-4.546-13.763a20.584,20.584,0,0,0-7.593-2.181L23.511,13.8c-.4-.034-.849-.057-1.33-.057s-.93.023-1.33.057Zm-1.317,2.568.716,1.357a13.434,13.434,0,0,1,5.292,0l.716-1.357a19.013,19.013,0,0,1,4.8,1.528S34,20.767,34,28.386v1.6s-4.613,3.006-6.019,3.005l-1.363-1.983c.847-.379,2-1.039,2-1.039l-.422-.327a15.914,15.914,0,0,1-6.019,1.251,15.9,15.9,0,0,1-6.018-1.251l-.422.327s1.156.659,2,1.039l-1.363,1.983c-1.405,0-6.018-3.005-6.018-3.005v-1.6c0-7.619,3.653-11.849,3.653-11.849A18.988,18.988,0,0,1,18.821,15.009Zm-1.361,7.244a2.7,2.7,0,0,0-2.526,2.837,2.7,2.7,0,0,0,2.526,2.837,2.7,2.7,0,0,0,2.525-2.837A2.7,2.7,0,0,0,17.461,22.253Zm9.443,0a2.7,2.7,0,0,0-2.525,2.837A2.7,2.7,0,0,0,26.9,27.927a2.7,2.7,0,0,0,2.526-2.837A2.7,2.7,0,0,0,26.9,22.253Z" transform="translate(-8 -12.441)" fill="#fff"/>
</svg>
