<svg xmlns="http://www.w3.org/2000/svg" xmlns:xlink="http://www.w3.org/1999/xlink" width="59.87" height="63.605" viewBox="0 0 59.87 63.605">
  <defs>
    <filter id="play" x="0" y="0" width="59.87" height="63.605" filterUnits="userSpaceOnUse">
      <feOffset dy="3" input="SourceAlpha"/>
      <feGaussianBlur stdDeviation="5" result="blur"/>
      <feFlood flood-color="#c32e7b" flood-opacity="0.569"/>
      <feComposite operator="in" in2="blur"/>
      <feComposite in="SourceGraphic"/>
    </filter>
  </defs>
  <g transform="matrix(1, 0, 0, 1, 0, 0)" filter="url(#play)">
    <path id="play-2" data-name="play" d="M31.8,22.28a1.822,1.822,0,0,0-.6-2.545L12.672,8.473a1.924,1.924,0,0,0-1-.278,1.868,1.868,0,0,0-1.891,1.848V32.56a1.824,1.824,0,0,0,.285.976,1.918,1.918,0,0,0,2.605.592L31.2,22.869a1.892,1.892,0,0,0,.607-.592Zm1.393,3.729L14.673,37.267a5.753,5.753,0,0,1-7.815-1.775A5.448,5.448,0,0,1,6,32.56V10.045A5.609,5.609,0,0,1,11.676,4.5a5.765,5.765,0,0,1,3,.836L33.193,16.6a5.465,5.465,0,0,1,1.82,7.632,5.618,5.618,0,0,1-1.82,1.777Z" transform="translate(9 7.5)" fill="#d83388"/>
  </g>
</svg>
