<svg xmlns="http://www.w3.org/2000/svg" width="18.554" height="18.554" viewBox="0 0 18.554 18.554">
  <path id="bx-support" d="M12.277,3A9.287,9.287,0,0,0,3,12.277V16.12a1.794,1.794,0,0,0,1.855,1.723h.928a.928.928,0,0,0,.928-.928V12.145a.928.928,0,0,0-.928-.928H4.941a7.411,7.411,0,0,1,14.672,0h-.842a.928.928,0,0,0-.928.928v5.7A1.857,1.857,0,0,1,15.988,19.7H14.132v-.928H10.421v2.783h5.566A3.714,3.714,0,0,0,19.7,17.843a1.794,1.794,0,0,0,1.855-1.722V12.277A9.287,9.287,0,0,0,12.277,3Z" transform="translate(-3 -3)" fill="#fff"/>
</svg>
