<?xml version="1.0" encoding="utf-8"?>
<!-- Generator: Adobe Illustrator 27.2.0, SVG Export Plug-In . SVG Version: 6.00 Build 0)  -->
<svg version="1.1" id="Capa_1" xmlns="http://www.w3.org/2000/svg" xmlns:xlink="http://www.w3.org/1999/xlink" x="0px" y="0px"
	 viewBox="0 0 800 800" style="enable-background:new 0 0 800 800;" xml:space="preserve">
<style type="text/css">
	.st0{fill:#FFFFFF;}
	.st1{fill:none;stroke:#FFFFFF;stroke-width:50;stroke-miterlimit:133.3333;}
	.st2{fill:none;stroke:#FFFFFF;stroke-width:50;stroke-linecap:round;stroke-miterlimit:133.3333;}
</style>
<path class="st0" d="M666,302.1l25,0.1v-0.1H666z M134,302.1h-25l0,0.1L134,302.1z M636.6,355.3l-19.1,16.1l2.8,3.3l3.8,2.2
	L636.6,355.3z M627.6,313.2c-11.1-8.2-26.8-5.8-34.9,5.4c-8.2,11.1-5.8,26.8,5.4,34.9L627.6,313.2z M134,500h-25l0,0H134z
	 M202,353.5c11.1-8.2,13.5-23.8,5.4-34.9c-8.2-11.1-23.8-13.5-34.9-5.4L202,353.5z M400,188.5c-25.7,0-40.3,1.4-51.9,2.8
	c-11.3,1.4-17.1,2.4-27.9,2.4v50c14.7,0,24.2-1.6,34-2.8c9.6-1.2,22.2-2.4,45.8-2.4V188.5z M400,238.5c23.6,0,36.2,1.2,45.8,2.4
	c9.9,1.2,19.3,2.8,34,2.8v-50c-10.9,0-16.6-1-27.9-2.4c-11.6-1.4-26.1-2.8-51.9-2.8V238.5z M479.8,243.7c7.1,0,13.7-2,18.5-3.8
	c5.2-1.9,10.6-4.5,15.7-7.1c10.2-5.2,22-12.2,32.8-18.5c11.3-6.5,22-12.5,31.6-16.8c10.3-4.6,16.1-5.9,18.5-5.9v-50
	c-13.6,0-27.7,5.2-39.1,10.4c-12,5.4-24.6,12.5-35.9,19c-11.8,6.8-21.9,12.8-30.7,17.3c-4.3,2.2-7.7,3.8-10.2,4.7
	c-2.9,1.1-2.9,0.7-1.1,0.7V243.7z M596.8,191.7c11.5,0,22.5,3.4,30.2,10.1c7.1,6.1,13.9,17,13.9,37.8h50c0-33.3-11.7-58.9-31.3-75.7
	c-18.9-16.2-42.4-22.2-62.9-22.2V191.7z M641,239.6v62.5h50v-62.5H641z M320.2,193.8c1.8,0,1.8,0.4-1.1-0.7
	c-2.5-0.9-5.9-2.5-10.2-4.7c-8.8-4.5-18.9-10.6-30.7-17.3c-11.3-6.5-23.9-13.6-35.9-19c-11.4-5.1-25.4-10.4-39.1-10.4v50
	c2.3,0,8.2,1.3,18.5,5.9c9.6,4.3,20.3,10.3,31.6,16.8c10.8,6.2,22.6,13.2,32.8,18.5c5.2,2.7,10.5,5.2,15.7,7.1
	c4.8,1.8,11.4,3.8,18.5,3.8V193.8z M203.2,141.7c-20.4,0-44,6-62.9,22.2c-19.6,16.8-31.3,42.4-31.3,75.7h50
	c0-20.8,6.9-31.8,13.9-37.8c7.7-6.7,18.8-10.1,30.2-10.1V141.7z M109,239.6v62.5h50v-62.5H109z M400,691.7
	c47.7,0,118-9.5,177.4-36.8C636.8,627.5,691,579.1,691,500h-50c0,51.1-33.6,86-84.5,109.5c-51,23.5-113.7,32.2-156.5,32.2V691.7z
	 M655.7,339.2c-7.8-9.3-17.1-17.9-28.1-26L598,353.5c8,5.9,14.4,11.9,19.6,18L655.7,339.2z M641,302c0,6.6-1.4,20.4-4.6,29.8
	c-1.8,5.3-2.8,5.2-1,3.7c1.5-1.2,4.2-2.7,7.9-2.9c3.5-0.2,5.6,1,5.8,1.1l-25,43.3c6,3.5,13.4,6,21.7,5.6c8.5-0.4,15.5-3.8,20.8-8.1
	c9.6-7.7,14.4-18.9,17-26.5c5.6-16.4,7.3-36,7.3-45.8L641,302z M400,641.7c-42.7,0-105.4-8.7-156.5-32.2
	C192.6,586,159,551.1,159,500h-50c0,79.1,54.2,127.5,113.6,154.9c59.4,27.3,129.7,36.8,177.4,36.8V641.7z M159,500
	c0-26.3-1.9-47.9,0.6-70.9c2.3-21.5,8.4-40.6,22.8-57.6l-38.2-32.3c-22.7,26.8-31.3,56.4-34.3,84.5C107,450.2,109,479,109,500H159z
	 M182.4,371.5c5.1-6.1,11.5-12.1,19.6-18l-29.6-40.3c-11,8.1-20.3,16.8-28.1,26L182.4,371.5z M109,302.2c0,9.8,1.7,29.4,7.3,45.8
	c2.6,7.6,7.4,18.9,17,26.5c5.3,4.3,12.4,7.6,20.8,8.1c8.3,0.4,15.7-2.1,21.7-5.6l-25-43.3c0.2-0.1,2.3-1.2,5.8-1.1
	c3.7,0.2,6.4,1.7,7.9,2.9c1.9,1.5,0.8,1.6-1-3.7c-3.2-9.5-4.6-23.2-4.6-29.8L109,302.2z"/>
<path class="st1" d="M427.5,533.3c0,5.8-12,10.4-26.9,10.4s-26.9-4.7-26.9-10.4s12-10.4,26.9-10.4S427.5,527.6,427.5,533.3z"/>
<path class="st1" d="M516.7,453.1c0,14.4-7.2,26-16.1,26c-8.9,0-16.1-11.7-16.1-26c0-14.4,7.2-26,16.1-26
	C509.4,427.1,516.7,438.7,516.7,453.1z"/>
<path class="st1" d="M316.7,453.1c0,14.4-7.2,26-16.1,26c-8.9,0-16.1-11.7-16.1-26c0-14.4,7.2-26,16.1-26
	C309.4,427.1,316.7,438.7,316.7,453.1z"/>
<path class="st2" d="M733.3,515.6c-16.1-10.4-86-36.5-112.9-36.5"/>
<path class="st2" d="M679.6,599c-16.1-10.4-53.8-36.5-80.6-36.5"/>
<path class="st2" d="M66.7,515.6c16.1-10.4,86-36.5,112.9-36.5"/>
<path class="st2" d="M120.4,599c16.1-10.4,53.8-36.5,80.6-36.5"/>
</svg>
