<?xml version="1.0" encoding="utf-8"?>
<!-- Generator: Adobe Illustrator 27.2.0, SVG Export Plug-In . SVG Version: 6.00 Build 0)  -->
<svg version="1.1" id="Capa_1" xmlns="http://www.w3.org/2000/svg" xmlns:xlink="http://www.w3.org/1999/xlink" x="0px" y="0px"
	 viewBox="0 0 800 800" style="enable-background:new 0 0 800 800;" xml:space="preserve">
<style type="text/css">
	.st0{fill:none;stroke:#FFFFFF;stroke-width:50;stroke-linecap:round;stroke-miterlimit:133.3333;}
	.st1{fill:none;stroke:#FFFFFF;stroke-width:50;stroke-linecap:round;stroke-linejoin:round;stroke-miterlimit:133.3333;}
</style>
<path class="st0" d="M333.3,67c-82.7,1.2-129.5,7.3-160.9,38.8c-39.1,39.1-39.1,101.9-39.1,227.6V400c0,125.7,0,188.6,39.1,227.6
	c39.1,39.1,101.9,39.1,227.6,39.1c125.7,0,188.6,0,227.6-39.1c39.1-39,39.1-101.9,39.1-227.6v-66.7c0-125.7,0-188.6-39.1-227.6
	C596.2,74.3,549.3,68.2,466.7,67"/>
<path class="st1" d="M666.7,433.3H533.3 M133.3,433.3H400"/>
<path class="st1" d="M516.7,533.3h50"/>
<path class="st1" d="M233.3,533.3h50"/>
<path class="st1" d="M200,650v50c0,18.4,14.9,33.3,33.3,33.3h50c18.4,0,33.3-14.9,33.3-33.3v-33.3"/>
<path class="st1" d="M600,650v50c0,18.4-14.9,33.3-33.3,33.3h-50c-18.4,0-33.3-14.9-33.3-33.3v-33.3"/>
<path class="st1" d="M666.7,300H700c18.4,0,33.3,14.9,33.3,33.3v33.3c0,10.5-4.9,20.4-13.3,26.7l-53.3,40"/>
<path class="st1" d="M133.3,300H100c-18.4,0-33.3,14.9-33.3,33.3v33.3c0,10.5,4.9,20.4,13.3,26.7l53.3,40"/>
<path class="st0" d="M150,166.7h125 M650,166.7H400"/>
</svg>
