<?xml version="1.0" encoding="utf-8"?>
<!-- Generator: Adobe Illustrator 27.2.0, SVG Export Plug-In . SVG Version: 6.00 Build 0)  -->
<svg version="1.1" id="Capa_1" xmlns="http://www.w3.org/2000/svg" xmlns:xlink="http://www.w3.org/1999/xlink" x="0px" y="0px"
	 viewBox="0 0 800 800" style="enable-background:new 0 0 800 800;" xml:space="preserve">
<style type="text/css">
	.st0{fill:none;stroke:#FFFFFF;stroke-width:50;stroke-linecap:round;stroke-miterlimit:133.3333;}
	.st1{fill:#FFFFFF;}
</style>
<path class="st0" d="M200,235.7C239.2,213,284.8,200,333.3,200C480.6,200,600,319.4,600,466.7c0,147.3-119.4,266.7-266.7,266.7
	c-147.3,0-266.7-119.4-266.7-266.7c0-48.6,13-94.1,35.7-133.3"/>
<path class="st1" d="M733.3,66.7h25c0-13.8-11.2-25-25-25V66.7z M708.3,233.3c0,13.8,11.2,25,25,25s25-11.2,25-25H708.3z
	 M566.7,41.7c-13.8,0-25,11.2-25,25s11.2,25,25,25V41.7z M534.3,301L751,84.3L715.7,49L499,265.7L534.3,301z M708.3,66.7v166.7h50
	V66.7H708.3z M566.7,91.7h166.7v-50H566.7V91.7z"/>
</svg>
