<?xml version="1.0" encoding="utf-8"?>
<!-- Generator: Adobe Illustrator 27.2.0, SVG Export Plug-In . SVG Version: 6.00 Build 0)  -->
<svg version="1.1" id="Capa_1" xmlns="http://www.w3.org/2000/svg" xmlns:xlink="http://www.w3.org/1999/xlink" x="0px" y="0px"
	 viewBox="0 0 800 800" style="enable-background:new 0 0 800 800;" xml:space="preserve">
<style type="text/css">
	.st0{fill:#FFFFFF;}
	.st1{fill:none;stroke:#FFFFFF;stroke-width:50;stroke-linecap:round;stroke-miterlimit:133.3333;}
</style>
<path class="st0" d="M316.7,591.7c-13.8,0-25,11.2-25,25c0,13.8,11.2,25,25,25V591.7z M483.3,641.7c13.8,0,25-11.2,25-25
	c0-13.8-11.2-25-25-25V641.7z M375,733.3c0,13.8,11.2,25,25,25c13.8,0,25-11.2,25-25L375,733.3z M375,533.3v83.3h50v-83.3H375z
	 M400,591.7h-83.3v50H400V591.7z M483.3,591.7H400v50h83.3V591.7z M375,616.7l0,116.7l50,0l0-116.7L375,616.7z"/>
<path class="st1" d="M283.3,97.9C317.7,78,357.5,66.7,400,66.7c128.9,0,233.3,104.5,233.3,233.3c0,128.9-104.5,233.3-233.3,233.3
	c-128.9,0-233.3-104.5-233.3-233.3c0-42.5,11.4-82.3,31.2-116.7"/>
</svg>
