<?xml version="1.0" encoding="utf-8"?>
<!-- Generator: Adobe Illustrator 27.2.0, SVG Export Plug-In . SVG Version: 6.00 Build 0)  -->
<svg version="1.1" id="Capa_1" xmlns="http://www.w3.org/2000/svg" xmlns:xlink="http://www.w3.org/1999/xlink" x="0px" y="0px"
	 viewBox="0 0 800 800" style="enable-background:new 0 0 800 800;" xml:space="preserve">
<style type="text/css">
	.st0{fill:none;stroke:#FFFFFF;stroke-width:50;stroke-miterlimit:133.3333;}
	.st1{fill:none;stroke:#FFFFFF;stroke-width:50;stroke-linecap:round;stroke-miterlimit:133.3333;}
	.st2{fill:#FFFFFF;}
</style>
<circle class="st0" cx="416.7" cy="150" r="83.3"/>
<path class="st1" d="M233.3,733.3l17-13.6c42.9-34.3,72.3-82.6,83-136.4"/>
<path class="st2" d="M371.9,447.3l24.9,2.5L371.9,447.3z M399,542l-19.8,15.3L399,542z M526.9,748.6c8.4,10.9,24.1,13,35.1,4.5
	c10.9-8.4,13-24.1,4.5-35.1L526.9,748.6z M365.7,333.9l-1.4-25L365.7,333.9z M436.2,337.7l-3.6,24.7l0,0L436.2,337.7z M573.2,443.3
	l-4.1-24.7L573.2,443.3z M637.4,458c13.6-2.3,22.8-15.1,20.5-28.8c-2.3-13.6-15.2-22.8-28.8-20.6L637.4,458z M520.5,411.6l23.7-7.9
	l0,0L520.5,411.6z M208.3,483.3c0,13.8,11.2,25,25,25s25-11.2,25-25H208.3z M416.2,605.1c8.4,10.9,24.1,13,35.1,4.5
	c10.9-8.4,13-24.1,4.5-35.1L416.2,605.1z M529.6,670.2c-8.4-10.9-24.1-13-35.1-4.5c-10.9,8.4-13,24.1-4.5,35.1L529.6,670.2z
	 M358.5,330.8l-11.4,113.9l49.8,5l11.4-113.9L358.5,330.8z M383.3,308.3c-5.9,0-12.4,0.2-19,0.6l2.7,49.9c6-0.3,11.5-0.5,16.3-0.5
	V308.3z M383.3,358.3c15.1,0,32.5,1.7,49.4,4.1l7.1-49.5c-18-2.6-38-4.6-56.5-4.6V358.3z M577.3,468l60.1-10l-8.2-49.3l-60.1,10
	L577.3,468z M432.7,362.5c29.4,4.2,53.9,26.3,64.1,57.1l47.4-15.8c-15.3-46-53.8-83.5-104.5-90.8L432.7,362.5z M364.3,308.9
	c-92.2,5-156,86.4-156,174.4h50c0-65.9,47.2-121.2,108.7-124.5L364.3,308.9z M496.8,419.5c11.3,33.8,45.4,54.3,80.5,48.5l-8.2-49.3
	c-10.8,1.8-21.4-4.5-24.9-15L496.8,419.5z M347.1,444.8c-2.4,24.1-4.7,42.8,0.4,60.7l48.1-13.8c-1.9-6.6-1.6-14,1.2-42L347.1,444.8z
	 M418.8,526.7c-17.2-22.3-21.4-28.4-23.3-35l-48.1,13.8c5.1,17.9,16.9,32.6,31.7,51.8L418.8,526.7z M379.2,557.2l36.9,47.8
	l39.6-30.5l-36.9-47.8L379.2,557.2z M490,700.8l36.9,47.8l39.6-30.5l-36.9-47.8L490,700.8z"/>
</svg>
