<?xml version="1.0" encoding="utf-8"?>
<!-- Generator: Adobe Illustrator 27.2.0, SVG Export Plug-In . SVG Version: 6.00 Build 0)  -->
<svg version="1.1" id="Capa_1" xmlns="http://www.w3.org/2000/svg" xmlns:xlink="http://www.w3.org/1999/xlink" x="0px" y="0px"
	 viewBox="0 0 800 800" style="enable-background:new 0 0 800 800;" xml:space="preserve">
<style type="text/css">
	.st0{fill:none;stroke:#FFFFFF;stroke-width:50;stroke-linecap:round;stroke-miterlimit:133.3333;}
	.st1{fill:#FFFFFF;}
</style>
<path class="st0" d="M700,400h-78.8c-21.9,0-32.9,0-42.6,4.3c-9.7,4.3-17,12.5-31.7,28.8l-34.3,38.1c-12,13.4-18.1,20.1-25.7,19.9
	c-7.6-0.2-13.4-7.1-24.8-21L344.4,327.6c-10.7-12.9-16-19.4-23.2-19.8c-7.2-0.4-13.3,5.3-25.5,16.9l-50.1,47.7
	c-14.3,13.6-21.5,20.4-30.4,24c-8.9,3.6-18.8,3.6-38.6,3.6H100"/>
<path class="st1" d="M298.7,630.4l15.5-19.6L298.7,630.4z M400,183.4l-18,17.3c4.7,4.9,11.2,7.7,18,7.7c6.8,0,13.3-2.8,18-7.7
	L400,183.4z M501.3,630.4l15.5,19.6l0,0L501.3,630.4z M400,682.9v-25V682.9z M88.6,446.5c7.3,11.7,22.7,15.3,34.4,8
	c11.7-7.3,15.3-22.7,8-34.4L88.6,446.5z M217.7,525.7c-9.8-9.8-25.6-9.7-35.4,0c-9.8,9.8-9.7,25.6,0,35.4L217.7,525.7z M91.7,304.6
	c0-93.4,41.9-151.4,94.3-171.3c52.5-20,125.7-5.6,196,67.5l36-34.7C338.3,83.2,244.8,57.4,168.2,86.5
	C91.4,115.7,41.7,196.3,41.7,304.6H91.7z M516.8,650c49.7-39.2,109.4-91.8,156.8-150.5c46.9-58.1,84.8-125.8,84.8-194.9h-50
	c0,51.7-29.1,108.2-73.7,163.5c-44.1,54.6-100.5,104.6-148.8,142.7L516.8,650z M758.3,304.6c0-108.3-49.8-188.9-126.5-218.1
	C555.2,57.4,461.7,83.2,382,166l36,34.7c70.3-73,143.5-87.4,196-67.5c52.4,19.9,94.3,77.9,94.3,171.3H758.3z M283.2,650
	c42.5,33.5,71.8,57.9,116.8,57.9v-50c-24.4,0-39.5-10.6-85.8-47.1L283.2,650z M485.8,610.7c-46.3,36.5-61.4,47.1-85.8,47.1v50
	c45,0,74.3-24.4,116.8-57.9L485.8,610.7z M131,420.1c-24.9-39.9-39.3-79.1-39.3-115.6h-50c0,49.3,19.4,97.7,46.9,142L131,420.1z
	 M314.2,610.7c-30.6-24.1-64.5-53-96.5-85l-35.3,35.4c33.8,33.7,69.3,63.9,100.9,88.9L314.2,610.7z"/>
</svg>
