<?xml version="1.0" encoding="utf-8"?>
<!-- Generator: Adobe Illustrator 27.2.0, SVG Export Plug-In . SVG Version: 6.00 Build 0)  -->
<svg version="1.1" id="Capa_1" xmlns="http://www.w3.org/2000/svg" xmlns:xlink="http://www.w3.org/1999/xlink" x="0px" y="0px"
	 viewBox="0 0 800 800" style="enable-background:new 0 0 800 800;" xml:space="preserve">
<style type="text/css">
	.st0{fill:none;stroke:#FFFFFF;stroke-width:50;stroke-linecap:round;stroke-miterlimit:133.3333;}
	.st1{fill:none;stroke:#FFFFFF;stroke-width:50;stroke-miterlimit:133.3333;}
</style>
<path class="st0" d="M66.7,400c0,125.7,0,188.6,39.1,227.6c39.1,39.1,101.9,39.1,227.6,39.1h133.3c125.7,0,188.6,0,227.6-39.1
	c39.1-39,39.1-101.9,39.1-227.6c0-31.5,0.6-42.4,0-66.7 M433.3,133.3h-100c-125.7,0-188.6,0-227.6,39.1
	c-21.8,21.8-31.4,50.9-35.7,94.3"/>
<path class="st0" d="M200,266.7l55.5,46.2 M528,326.6c-61.2,51-91.8,76.5-128,76.5c-21.6,0-41.3-9.1-66.7-27.4"/>
<circle class="st1" cx="633.3" cy="166.7" r="100"/>
</svg>
