<?xml version="1.0" encoding="utf-8"?>
<!-- Generator: Adobe Illustrator 27.2.0, SVG Export Plug-In . SVG Version: 6.00 Build 0)  -->
<svg version="1.1" id="Capa_1" xmlns="http://www.w3.org/2000/svg" xmlns:xlink="http://www.w3.org/1999/xlink" x="0px" y="0px"
	 viewBox="0 0 800 800" style="enable-background:new 0 0 800 800;" xml:space="preserve">
<style type="text/css">
	.st0{fill:none;stroke:#FFFFFF;stroke-width:50;stroke-linecap:round;stroke-miterlimit:133.3333;}
</style>
<path class="st0" d="M426.4,526.6l47.7-47.7c79-79.1,79-207.2,0-286.3c-79-79.1-207.1-79.1-286.1,0l-95.4,95.4
	c-79,79.1-79,207.2,0,286.3c36.6,36.7,83.8,56.3,131.8,59"/>
<path class="st0" d="M707.4,511.9c79-79.1,79-207.2,0-286.3c-36.6-36.7-83.8-56.3-131.8-59 M612,607.4c-79,79.1-207.1,79.1-286.1,0
	c-79-79.1-79-207.2,0-286.3l47.7-47.7"/>
</svg>
