<?xml version="1.0" encoding="utf-8"?>
<!-- Generator: Adobe Illustrator 27.2.0, SVG Export Plug-In . SVG Version: 6.00 Build 0)  -->
<svg version="1.1" id="Capa_1" xmlns="http://www.w3.org/2000/svg" xmlns:xlink="http://www.w3.org/1999/xlink" x="0px" y="0px"
	 viewBox="0 0 800 800" style="enable-background:new 0 0 800 800;" xml:space="preserve">
<style type="text/css">
	.st0{fill:none;stroke:#FFFFFF;stroke-width:50;stroke-linecap:round;stroke-miterlimit:133.3333;}
	.st1{fill:none;stroke:#FFFFFF;stroke-width:50;stroke-miterlimit:133.3333;}
</style>
<path class="st0" d="M700,438.7c0-34.8,0-118.8-9.4-131.9c-9.4-13.1-25.9-18.6-58.9-29.6L600,266.7 M700,561c0,43,0,64.5-11.3,78.4
	c-3.8,4.7-8.5,8.6-13.8,11.7c-15.5,8.9-36.7,5.4-79.2-1.7c-41.9-7-62.8-10.5-83.6-8.7c-7.3,0.6-14.5,1.7-21.7,3.3
	c-20.3,4.4-39.5,14-77.8,33.2c-50,25-75,37.5-101.6,41.3c-8,1.2-16.1,1.7-24.2,1.7c-26.9-0.1-53.2-8.8-105.7-26.3l-12.8-4.3
	c-33-11-49.5-16.5-58.9-29.6c-9.4-13.1-9.4-30.5-9.4-65.3v-27.9 M100,430.3c0-55.3,0-82.9,16.3-97.8c2.8-2.6,6-4.9,9.4-6.7
	c17.2-9.6,39.9-3.7,81.8,10.1"/>
<path class="st0" d="M575,375c16.2-38.6,25-79.7,25-118.4c0-104.9-89.5-190-200-190c-110.5,0-200,85.1-200,190
	c0,104.1,63.8,225.6,163.4,269.1c23.2,10.1,49.9,10.1,73.1,0c31.8-13.9,60-35.7,83.6-62.4"/>
<circle class="st1" cx="400" cy="266.7" r="66.7"/>
</svg>
