<?xml version="1.0" encoding="utf-8"?>
<!-- Generator: Adobe Illustrator 27.2.0, SVG Export Plug-In . SVG Version: 6.00 Build 0)  -->
<svg version="1.1" id="Capa_1" xmlns="http://www.w3.org/2000/svg" xmlns:xlink="http://www.w3.org/1999/xlink" x="0px" y="0px"
	 viewBox="0 0 800 800" style="enable-background:new 0 0 800 800;" xml:space="preserve">
<style type="text/css">
	.st0{fill:none;stroke:#FFFFFF;stroke-width:50;stroke-linecap:round;stroke-miterlimit:133.3333;}
	.st1{fill:none;stroke:#FFFFFF;stroke-width:50;stroke-miterlimit:133.3333;}
</style>
<path class="st0" d="M733.3,466.7V400c0-125.7,0-188.6-39.1-227.6c-39-39.1-101.9-39.1-227.6-39.1 M466.7,733.3H333.3
	c-125.7,0-188.6,0-227.6-39.1c-39.1-39-39.1-101.9-39.1-227.6V400c0-125.7,0-188.6,39.1-227.6c39.1-39.1,101.9-39.1,227.6-39.1"/>
<path class="st0" d="M233.3,133.3v-50"/>
<path class="st0" d="M566.7,133.3v-50"/>
<circle class="st1" cx="600" cy="600" r="100"/>
<path class="st0" d="M683.3,683.3l50,50"/>
<path class="st0" d="M716.7,300H554.2H358.3 M66.7,300h129.2"/>
</svg>
